PathFileType	4	(X/Y/Z)	C:/Users/opensim2020/Desktop/walking_exp_matlab/subject03_walking16_run.trc																																																																																																																																																	
DataRate	CameraRate	NumFrames	NumMarkers	Units	OrigDataRate	OrigDataStartFrame	OrigNumFrames																																																																																																																																													
100	100	8	49	mm	100	272	131																																																																																																																																													
Frame#	Time	RKNE			RTOE			RWRB			LTHI			RELB			RFRM			RUPA			RASI			LTIB			RWRA			RTHI			LSHO			LTOE			RTIB			LWRA			CLAV			LASI			RSHO			RFHD			STRN			LHEE			RFIN			RBHD			LFRM			C7			LWRB			LFIN			LUPA			LBHD			LELB			RANK			RHEE			RBAK			LPSI			T10			LFHD			RPSI			LKNE			LANK			*39			*40			*41			*42			*43			*44			*45			*46			*47			*48		
		X1	Y1	Z1	X2	Y2	Z2	X3	Y3	Z3	X4	Y4	Z4	X5	Y5	Z5	X6	Y6	Z6	X7	Y7	Z7	X8	Y8	Z8	X9	Y9	Z9	X10	Y10	Z10	X11	Y11	Z11	X12	Y12	Z12	X13	Y13	Z13	X14	Y14	Z14	X15	Y15	Z15	X16	Y16	Z16	X17	Y17	Z17	X18	Y18	Z18	X19	Y19	Z19	X20	Y20	Z20	X21	Y21	Z21	X22	Y22	Z22	X23	Y23	Z23	X24	Y24	Z24	X25	Y25	Z25	X26	Y26	Z26	X27	Y27	Z27	X28	Y28	Z28	X29	Y29	Z29	X30	Y30	Z30	X31	Y31	Z31	X32	Y32	Z32	X33	Y33	Z33	X34	Y34	Z34	X35	Y35	Z35	X36	Y36	Z36	X37	Y37	Z37	X38	Y38	Z38	X39	Y39	Z39	X40	Y40	Z40	X41	Y41	Z41	X42	Y42	Z42	X43	Y43	Z43	X44	Y44	Z44	X45	Y45	Z45	X46	Y46	Z46	X47	Y47	Z47	X48	Y48	Z48	X49	Y49	Z49
																																																																																																																																																				
82	0.81	769.62354	486.63446	374.21811	451.96777	83.38439	305.95673	1191.61218	1113.4187	389.58481	1035.07312	653.5199	85.7211	1012.41217	1095.10852	514.4364	1111.4895	1106.56958	446.44086	981.49554	1175.71924	497.90994	996.42853	924.53198	361.72598	1155.02197	305.99149	132.17575	1160.27466	1152.49268	372.75998	833.56549	658.54266	406.39825	921.73389	1401.26648	109.8646	1372.70642	73.43961	211.55161	610.55457	369.56412	376.5582	855.80542	1025.84485	16.90625	995.28784	1341.3335	237.9655	1003.16772	933.94012	134.76759	962.9198	1373.18652	394.82727	969.22491	1626.38062	322.75653	1045.76294	1177.68054	222.72693	1185.42993	79.12818	218.47957	1238.71497	1160.98645	360.53427	863.16968	1552.87976	312.27954	803.40387	1126.27747	-39.38694	868.97052	1406.39575	257.47192	857.00641	1024.57605	-40.88333	869.09033	934.08929	-17.31759	805.22168	1308.07776	-9.92063	871.82288	1552.69812	182.12917	743.13098	1222.47437	-57.81367	443.77603	231.70427	336.17136	406.69012	258.95499	283.43607	846.9577	1236.06592	357.26257	846.22174	973.51758	171.48778	843.8139	1104.24524	248.14778	983.20483	1627.2876	190.81433	847.87585	986.05066	321.32184	1125.03809	499.73047	129.52499	1217.78503	105.58808	177.29143	NaN	NaN	NaN	NaN	NaN	NaN	NaN	NaN	NaN	NaN	NaN	NaN	NaN	NaN	NaN	NaN	NaN	NaN	NaN	NaN	NaN	884.4054	1664.05737	234.50409	NaN	NaN	NaN	NaN	NaN	NaN
83	0.82	810.86017	482.16922	373.80542	475.50519	98.08781	313.8511	1222.81836	1107.98096	389.05667	1063.51111	646.40784	84.43928	1043.79333	1093.93762	515.27814	1142.96094	1103.36096	446.36594	1013.61963	1175.24219	497.88315	1030.7218	924.69476	361.24829	1187.45679	305.02667	135.86415	1192.34045	1147.54712	371.88925	873.52167	655.09167	406.2052	956.2652	1399.92542	108.45676	1408.93848	72.9578	211.41373	643.82281	374.30377	377.64862	891.99005	1026.08508	16.8435	1029.03857	1341.11121	237.01318	1035.49915	931.93896	134.33463	996.36517	1373.21033	394.5625	1000.91412	1626.05005	322.08862	1079.37402	1177.15613	221.99983	1221.89124	80.96574	224.13899	1271.06934	1154.01074	359.02338	895.59741	1551.95251	311.22855	839.48395	1125.86401	-40.92875	902.09906	1405.49475	256.45462	893.36841	1023.87616	-40.73411	903.70343	933.10638	-15.81746	840.62262	1307.11926	-12.06568	904.74377	1552.00183	181.17546	778.57971	1221.72717	-61.14917	469.75681	247.13802	336.70288	433.25543	273.42606	281.94275	880.48328	1234.76575	355.66949	879.43201	971.4837	171.75192	877.58868	1103.1781	247.68677	1015.94507	1627.5603	190.18134	881.72821	985.85522	321.85669	1155.91248	496.09238	130.70523	1253.13489	106.21893	182.15523	NaN	NaN	NaN	NaN	NaN	NaN	NaN	NaN	NaN	NaN	NaN	NaN	NaN	NaN	NaN	NaN	NaN	NaN	NaN	NaN	NaN	915.78308	1663.06836	234.12384	NaN	NaN	NaN	NaN	NaN	NaN
84	0.83	854.36792	476.26938	373.35175	500.56296	113.23372	320.8031	1253.89282	1098.93835	389.64636	1092.27649	639.11603	83.373	1074.13074	1091.41016	516.14807	1173.12476	1097.19104	446.05719	1044.45593	1173.5918	497.73215	1064.35449	924.10919	360.92807	1218.10498	303.32367	138.86079	1224.62158	1139.06628	371.3537	914.12665	650.33643	405.39377	990.80389	1397.59143	106.52221	1436.96997	68.65106	215.31886	680.38	378.60751	378.35342	929.50769	1023.54498	17.75558	1062.85083	1340.08325	236.19296	1067.1554	928.8432	133.88303	1029.86182	1372.44739	394.48941	1032.83716	1625.323	321.5347	1112.65942	1175.63416	221.68869	1250.09375	79.5582	228.31264	1303.72534	1142.61145	358.46069	927.87079	1550.41833	310.06778	877.59039	1122.10461	-42.52254	935.43958	1403.90271	255.2029	932.04803	1020.39838	-39.9881	940.94574	929.56177	-13.4631	877.63672	1303.03259	-15.41753	937.67297	1550.85571	180.21513	816.34113	1217.52075	-64.83466	498.86212	262.03552	337.66595	463.41904	288.55078	281.70096	913.67609	1232.68774	354.06644	912.00366	968.10193	172.2831	910.64587	1100.94421	247.69296	1048.3595	1627.10352	189.70555	914.65674	984.48798	322.44086	1188.14514	494.12415	131.54066	1281.21021	103.85018	186.37527	NaN	NaN	NaN	NaN	NaN	NaN	NaN	NaN	NaN	NaN	NaN	NaN	NaN	NaN	NaN	NaN	NaN	NaN	NaN	NaN	NaN	947.46777	1661.48145	233.18987	NaN	NaN	NaN	NaN	NaN	NaN
85	0.84	900.07373	469.306	373.78143	527.22162	128.12897	326.05066	1283.70313	1086.21838	390.39975	1122.51978	633.11938	83.87904	1102.76086	1087.49573	516.34839	1202.85791	1088.65942	446.47345	1074.27502	1171.33191	498.10114	1097.58008	922.73926	360.89139	1245.68005	300.13519	141.66911	1256.87451	1127.33508	371.40262	955.25574	644.74713	404.97498	1025.39392	1394.53577	104.48615	1457.48596	59.6873	221.92046	720.85986	381.04419	379.17493	969.06183	1018.49408	19.27083	1096.54565	1338.23584	235.28294	1098.50769	925.1571	133.37547	1063.55469	1370.82727	394.37094	1065.10754	1623.97925	321.0795	1145.69482	1173.11646	221.68997	1270.80151	76.22483	232.81473	1336.24524	1126.93494	358.85175	960.27136	1548.47693	309.04605	917.68286	1115.44324	-43.86945	969.07703	1401.64539	253.59488	972.70624	1014.36798	-38.26024	980.82019	923.85718	-10.13438	915.93365	1296.35559	-19.53388	970.51349	1549.13452	179.16435	856.33624	1210.02917	-68.58817	532.3526	276.03766	339.88361	497.4595	304.07571	283.45041	946.59979	1230.44336	352.36096	943.96368	963.71082	173.08147	943.29108	1098.08606	247.9319	1080.74219	1625.87341	189.20097	946.91003	981.55377	323.14166	1220.84949	493.18512	132.21356	1303.0083	99.2366	190.95587	NaN	NaN	NaN	NaN	NaN	NaN	NaN	NaN	NaN	NaN	NaN	NaN	NaN	NaN	NaN	NaN	NaN	NaN	NaN	NaN	NaN	979.04034	1659.19202	232.32274	NaN	NaN	NaN	NaN	NaN	NaN
86	0.85	947.20148	461.3107	374.16064	556.44458	142.15794	329.79813	1313.2312	1070.65979	392.61942	1153.68127	629.82513	85.34191	1130.35828	1082.79272	515.96545	1231.703	1077.84558	447.31781	1102.82532	1168.41724	497.71127	1130.59497	920.72882	361.21725	1270.51111	295.48599	144.50357	1288.72693	1112.51611	372.24875	996.78119	638.44611	405.28702	1059.70691	1390.30811	102.31064	1471.48608	47.46675	229.62756	764.64301	381.42041	379.98874	1009.64661	1011.28632	21.71869	1130.08032	1335.48486	234.52193	1129.84534	921.22113	132.81528	1097.62817	1368.24512	393.90796	1096.75391	1621.42664	320.21957	1178.46753	1169.68445	221.81912	1285.67969	71.26222	237.65683	1368.15967	1107.3811	360.3349	992.60675	1545.65942	307.91263	959.76196	1106.56482	-44.99993	1002.65033	1398.64502	251.57942	1014.81415	1006.12	-35.13194	1023.26874	916.44391	-5.76087	955.1344	1287.51624	-23.77765	1003.31281	1546.59705	177.94585	898.35211	1199.9032	-72.14391	570.02374	288.68195	343.10046	535.65344	319.19113	286.86276	979.34918	1228.20349	351.00198	975.4259	958.55713	174.0713	975.46411	1094.98914	248.34616	1112.8407	1623.57971	188.82132	978.66223	977.03448	323.89136	1253.53735	492.35681	132.76268	1319.15747	93.30162	196.069	NaN	NaN	NaN	NaN	NaN	NaN	NaN	NaN	NaN	NaN	NaN	NaN	NaN	NaN	NaN	NaN	NaN	NaN	NaN	NaN	NaN	1010.78162	1656.28516	231.63527	NaN	NaN	NaN	NaN	NaN	NaN
87	0.86	995.19678	452.47162	375.30917	590.06122	155.24191	333.50687	1341.04663	1051.97083	394.95444	1186.20239	629.47723	87.63512	1156.77576	1077.46875	515.09534	1259.38245	1065.17712	448.4783	1130.724	1165.08911	497.33859	1163.30347	917.92206	361.90018	1293.6814	289.83255	146.41678	1319.96179	1095.14429	373.66776	1038.53235	631.24249	406.3757	1094.22778	1385.11853	100.00339	1481.86853	37.3569	238.71227	810.89624	380.15771	380.83945	1051.1239	1002.37445	24.92193	1163.39258	1331.64673	233.82516	1161.33301	917.20941	132.18515	1131.84119	1364.75488	392.99512	1128.63892	1617.89038	319.58682	1211.13062	1165.28662	222.1098	1294.93872	64.48135	241.5771	1399.36389	1084.73132	362.99649	1024.95081	1541.74463	306.74457	1002.49091	1095.71021	-44.91421	1036.27478	1395.12646	249.47095	1058.76794	996.72729	-31.78034	1068.2168	907.72382	-0.5141	995.31171	1277.21582	-28.40163	1036.05261	1543.00269	176.7043	941.81525	1187.60974	-75.32051	611.05542	299.78351	346.81458	577.28308	332.88464	290.80054	1011.69611	1226.16467	349.88065	1006.14172	952.63806	175.28026	1007.60657	1091.35168	248.87718	1145.44507	1620.5376	188.05997	1010.29993	971.10669	324.784	1285.52368	490.58209	133.64363	1330.00854	86.3473	200.33153	NaN	NaN	NaN	NaN	NaN	NaN	NaN	NaN	NaN	NaN	NaN	NaN	NaN	NaN	NaN	NaN	NaN	NaN	NaN	NaN	NaN	1043.22412	1652.75537	230.49435	NaN	NaN	NaN	NaN	NaN	NaN
88	0.87	1044.01062	443.07428	377.30356	628.71252	166.7675	337.52786	1367.85437	1031.23804	398.26926	1220.05493	630.09204	90.23918	1182.33264	1071.79834	513.953	1286.4834	1050.80908	450.26782	1158.14771	1161.13318	496.80466	1195.63306	914.0918	362.66922	1314.6748	283.19522	148.02629	1350.0282	1075.43848	375.74744	1080.17896	623.29852	407.93668	1128.97656	1378.83191	97.45427	1487.6272	34.02732	241.8613	858.95569	377.90176	382.36523	1094.06628	992.3053	28.53194	1196.44165	1326.76538	233.26396	1192.776	913.41144	131.78745	1165.75623	1360.32532	391.75714	1160.4989	1613.37305	318.94629	1243.79468	1159.97302	222.56889	1296.12756	53.03629	244.78816	1428.81006	1059.23962	366.42596	1057.49023	1536.72534	305.69138	1046.97375	1083.49121	-44.43434	1069.5238	1391.00586	247.38316	1103.78333	986.03381	-27.63278	1115.14026	898.17145	5.69159	1036.354	1265.41992	-32.58337	1068.85095	1538.30847	175.4464	986.30383	1173.54053	-78.13461	654.65369	309.82147	350.04294	621.37018	344.4848	294.33908	1043.34009	1223.74146	348.73636	1037.03967	946.78644	176.83862	1039.52808	1087.52161	249.3382	1177.61011	1616.28174	187.59352	1041.77637	964.16888	326.04312	1316.48206	486.36313	133.808	1332.45789	79.33195	206.53781	NaN	NaN	NaN	NaN	NaN	NaN	NaN	NaN	NaN	NaN	NaN	NaN	NaN	NaN	NaN	NaN	NaN	NaN	NaN	NaN	NaN	1075.56592	1648.16174	229.64105	NaN	NaN	NaN	NaN	NaN	NaN
89	0.88	1093.57703	433.40997	379.51749	672.36011	176.32155	341.98135	1393.28918	1009.0036	402.69025	1254.87988	630.16217	91.78196	1207.82117	1065.80835	512.1391	1312.33398	1035.48389	452.564	1185.19482	1156.22144	495.841	1227.58655	909.22272	363.24207	1332.31372	276.79965	151.58917	1378.9342	1053.37695	378.43369	1121.38501	614.72815	409.68063	1164.06812	1371.65723	94.58436	1485.3783	34.45476	245.81761	908.38123	375.39005	384.86066	1137.25146	981.37494	33.1436	1229.50452	1321.09497	232.65172	1224.25732	910.00854	131.28032	1199.15234	1355.1499	390.37305	1192.37561	1608.21277	318.26981	1276.37939	1153.86426	223.17702	1293.61804	47.18499	248.97232	1456.35095	1031.60168	370.52405	1089.5874	1530.79016	304.16751	1092.3114	1070.17896	-43.37014	1102.35242	1386.37683	245.0425	1150.09973	974.7655	-22.6448	1163.75256	888.2771	12.55767	1077.79224	1251.81116	-36.69912	1101.65466	1532.89136	174.10442	1031.56799	1158.2019	-80.50138	700.89545	318.7735	352.87454	667.45026	353.81412	297.2326	1074.61047	1220.95239	347.84265	1067.16248	940.86298	178.42433	1071.57361	1083.0127	249.76366	1209.94604	1611.60913	186.90817	1073.00476	956.21387	327.60373	1347.4071	480.34601	133.39778	1330.48132	74.48753	212.66217	NaN	NaN	NaN	NaN	NaN	NaN	NaN	NaN	NaN	NaN	NaN	NaN	NaN	NaN	NaN	NaN	NaN	NaN	NaN	NaN	NaN	1107.88464	1642.6593	228.70653	NaN	NaN	NaN	NaN	NaN	NaN
